# xmcd CD database file generated by Grip 3.0.7
# 
# Track frame offsets:
#       150
#       6475
#       12365
#       27192
#       37715
#       50035
#       64357
#       85705
#       93647
#       100442
#       112920
#       125995
#       132142
#       139670
#       149782
#       161255
#       164497
#       174025
#       179102
#       183917
#       191870
#       194482
#       203485
#       210912
#       221792
#       228112
#       232012
#       237865
#       250150
#       272760
#       278992
#       286295
# 
# Disc length: 3908 seconds
# 
# Revision: 1
# Processed by: cddbd v1.5PL3 Copyright (c) Steve Scherf et al.
# Submitted via: Grip 3.0.7
# 
DISCID=db0f4220
DTITLE=Various Artist - Deep River of Song:  Alabama: From Lullabies to Blues
DYEAR=2001
DGENRE=Blues
TTITLE0=Another Man Done Gone - Vera Ward Hall
TTITLE1=Railroad Bill - Vera Ward Hall
TTITLE2=Poor Lazarus - Vera Ward Hall
TTITLE3=Been In the Jailhouse (Sun Gonna Shine In My Door Some Day) - Blind Je
TTITLE3=ssie Harris
TTITLE4=I Been Drinking - Vera Ward Hall
TTITLE5=Honey, Take A Whiff On Me - Blind Jessie Harris
TTITLE6=Train On A Hill (Train Imitation) - Richard Amerson
TTITLE7=Alabama Bound - Rich Brown
TTITLE8=Moaning (I'll Soon Be Gone) - Vera Ward Hall, Dock Reed, and Henry Ree
TTITLE8=d
TTITLE9=Job, Job - Dock Reed and Vera Ward Hall
TTITLE10=Didn't That Hammer Ring? (I Can't Hold Out No Longer) - Dock Reed and 
TTITLE10=Vera Ward Hall
TTITLE11=What Is the Soul of Man? - Dock Reed, Henry Reed, and Vera Ward Hall
TTITLE12=Knock John Booker (To The Low Ground) - Mary McDonald
TTITLE13=Wake, Sally Baker - Joe and Mary McDonald
TTITLE14=Go To Sleep (Little Baby) - Harriet McClintock
TTITLE15=Hush, Little Baby - Annie Brewer
TTITLE16=Come Up Horsey - Vera Ward Hall
TTITLE17=Little Bitty Man - Mary McDonald
TTITLE18=Titty, Give Me Some Titty - Mary McDonald
TTITLE19=Hopali - eight unindentified girls
TTITLE20=Ain't Gonna Rain No More - eight unidentified girls
TTITLE21=Jack, Can I Ride - unidentified children
TTITLE22=Billy Goat Latin - Joe F. Williams and Booker T. Williams
TTITLE23=Hog Hunt - Richard Amerson
TTITLE24=I'm Chopping Cotton - Sim Tartt Group
TTITLE25=Gin the Cotton - Harriet McClintock
TTITLE26=Boll Weevil Blues - Vera Ward Hall
TTITLE27=Worried Blues - Tom Bell
TTITLE28=Steamboat Days - Richard Amerson
TTITLE29=Carrie, Carrie - Thomas Langston, Judge Broadus, Albert Nicholson and Jo
TTITLE29=e Millhouse
TTITLE30=Eighteen Hundred and Ninety-One (Ain't Working Song) - Charley Campbel
TTITLE30=l
TTITLE31=Captain, I'm Getting Tired - Willie Carter, Albert Nicholson, Allen Go
TTITLE31=rdon, and David Alexander
EXTD=
EXTT0=
EXTT1=
EXTT2=
EXTT3=
EXTT4=
EXTT5=
EXTT6=
EXTT7=
EXTT8=
EXTT9=
EXTT10=
EXTT11=
EXTT12=
EXTT13=
EXTT14=
EXTT15=
EXTT16=
EXTT17=
EXTT18=
EXTT19=
EXTT20=
EXTT21=
EXTT22=
EXTT23=
EXTT24=
EXTT25=
EXTT26=
EXTT27=
EXTT28=
EXTT29=
EXTT30=
EXTT31=
PLAYORDER=
